<?xml version="1.0" encoding="UTF-8" standalone="no"?>
<!-- Created with Inkscape (http://www.inkscape.org/) -->

<svg
   width="145.18855mm"
   height="62.294487mm"
   viewBox="0 0 145.18856 62.294486"
   version="1.1"
   id="svg5"
   inkscape:export-filename="unmessy-strands.png"
   inkscape:export-xdpi="96"
   inkscape:export-ydpi="96"
   inkscape:version="1.2.1 (9c6d41e410, 2022-07-14)"
   sodipodi:docname="braids3.svg"
   xmlns:inkscape="http://www.inkscape.org/namespaces/inkscape"
   xmlns:sodipodi="http://sodipodi.sourceforge.net/DTD/sodipodi-0.dtd"
   xmlns="http://www.w3.org/2000/svg"
   xmlns:svg="http://www.w3.org/2000/svg">
  <sodipodi:namedview
     id="namedview7"
     pagecolor="#ffffff"
     bordercolor="#000000"
     borderopacity="0.25"
     inkscape:showpageshadow="2"
     inkscape:pageopacity="0.0"
     inkscape:pagecheckerboard="0"
     inkscape:deskcolor="#d1d1d1"
     inkscape:document-units="mm"
     showgrid="false"
     inkscape:zoom="1.1917148"
     inkscape:cx="140.97333"
     inkscape:cy="792.5554"
     inkscape:window-width="1440"
     inkscape:window-height="938"
     inkscape:window-x="-6"
     inkscape:window-y="-6"
     inkscape:window-maximized="1"
     inkscape:current-layer="layer1">
    <inkscape:grid
       type="xygrid"
       id="grid132"
       empspacing="30"
       originx="-17.618647"
       originy="-71.73305" />
    <inkscape:page
       x="0"
       y="0"
       width="145.18855"
       height="62.294487"
       id="page1391" />
    <inkscape:page
       x="1.8877119"
       y="71.418433"
       width="144.40996"
       height="67.957627"
       id="page1393" />
    <inkscape:page
       x="2.8862472"
       y="149.86283"
       width="145.64447"
       height="69.491949"
       id="page1847" />
  </sodipodi:namedview>
  <defs
     id="defs2" />
  <g
     inkscape:label="Layer 1"
     inkscape:groupmode="layer"
     id="layer1"
     transform="translate(-17.618644,-71.73305)">
    <circle
       id="path247"
       style="fill:#000000;stroke:none;stroke-width:0.264583"
       cx="23.8125"
       cy="63.5"
       r="0" />
    <circle
       id="path249"
       style="fill:#000000;stroke:none;stroke-width:0.264583"
       cx="23.8125"
       cy="63.5"
       r="0" />
    <circle
       id="path251"
       style="fill:#000000;stroke:none;stroke-width:0.264583"
       cx="23.8125"
       cy="63.5"
       r="0" />
    <circle
       id="path255"
       style="fill:none;stroke:none;stroke-width:0.264583"
       cx="23.8125"
       cy="95.25"
       r="0" />
    <circle
       id="path874"
       style="fill:#000000;stroke:none;stroke-width:0.264583"
       cx="31.75"
       cy="87.3125"
       r="0" />
    <circle
       id="path876"
       style="fill:#000000;stroke:none;stroke-width:2.065;stroke-dasharray:none"
       cx="31.75"
       cy="87.3125"
       r="0" />
    <path
       style="fill:none;fill-opacity:0.9;stroke:#0000ff;stroke-width:0.499999;stroke-linecap:square;stroke-dasharray:none;stroke-opacity:1"
       d="m 31.75,79.374999 c 0.284122,0.467125 0.408958,1.081498 0.852365,1.401374 4.266629,3.077966 7.443081,-0.128781 10.164255,6.456582 2.669315,6.45986 -2.042917,27.315515 5.579229,29.323655 3.093394,0.81498 16.412207,-28.42702 18.281623,-31.733176 0.942647,-1.667121 5.141487,-8.318471 7.789865,-4.526627 5.824577,8.339397 0.582605,34.820863 6.37459,38.564053 12.048374,7.7865 23.441863,-46.162529 33.650823,-37.979218 7.04276,5.645343 1.66588,49.412438 20.49475,38.180858"
       id="path1068" />
    <path
       style="fill:none;fill-opacity:0.9;stroke:#0000ff;stroke-width:0.499999;stroke-linecap:square;stroke-dasharray:none;stroke-opacity:1"
       d="m 138.72467,117.2818 c 14.38554,-16.17419 8.99631,6.18896 11.06489,10.19953"
       id="path1072" />
    <path
       style="fill:none;fill-opacity:0.9;stroke:#ff00ff;stroke-width:0.499999;stroke-linecap:square;stroke-dasharray:none;stroke-opacity:1"
       d="m 31.479503,126.51051 c 5.071766,-5.96056 -2.484718,-15.17796 8.047188,-18.45741"
       id="path1078" />
    <path
       style="fill:none;fill-opacity:0.9;stroke:#ff00ff;stroke-width:0.499999;stroke-linecap:square;stroke-dasharray:none;stroke-opacity:1"
       d="m 46.298963,107.45657 c 4.422325,-0.61578 2.452614,-0.54773 5.895033,-0.45618"
       id="path1080" />
    <path
       style="fill:none;fill-opacity:0.9;stroke:#ff00ff;stroke-width:0.499999;stroke-linecap:square;stroke-dasharray:none;stroke-opacity:1"
       d="m 57.410632,107.36299 c 5.674495,2.01338 10.299843,0.79367 15.696697,0"
       id="path1082" />
    <path
       style="fill:none;fill-opacity:0.9;stroke:#ff00ff;stroke-width:0.499999;stroke-linecap:square;stroke-dasharray:none;stroke-opacity:1"
       d="m 81.213001,104.81311 c 0.596522,-2.02743 1.268497,-4.03417 1.789565,-6.08229 0.883081,-3.471058 1.263997,-7.079009 2.421176,-10.468554 3.580246,-10.487081 8.698148,-0.358519 13.100073,0.163753"
       id="path1084" />
    <path
       style="fill:none;fill-opacity:0.9;stroke:#ff00ff;stroke-width:0.499999;stroke-linecap:square;stroke-dasharray:none;stroke-opacity:1"
       d="m 106.2669,91.677706 c 4.93143,5.661414 5.38494,11.817744 11.57953,14.889914"
       id="path1086" />
    <path
       style="fill:none;fill-opacity:0.9;stroke:#ff00ff;stroke-width:0.499999;stroke-linecap:square;stroke-dasharray:none;stroke-opacity:1"
       d="m 124.18593,107.45657 c 6.64953,1.15228 6.07008,6.64947 5.62601,10.83115"
       id="path1088" />
    <path
       style="fill:none;fill-opacity:0.9;stroke:#ff00ff;stroke-width:0.499999;stroke-linecap:square;stroke-dasharray:none;stroke-opacity:1"
       d="m 131.71847,124.24134 c 1.0059,0.7447 1.77,2.13587 3.0177,2.23407 4.10718,0.32326 1.94378,-13.74655 2.16385,-15.60341 1.69419,-14.294999 1.30347,-21.793243 12.38659,-31.581109"
       id="path1090" />
    <circle
       id="path948"
       style="fill:#000000;stroke:none;stroke-width:0.264583"
       cx="31.75"
       cy="79.375"
       r="3" />
    <circle
       id="path950"
       style="fill:#000000;stroke:none;stroke-width:0.264583"
       cx="31.75"
       cy="127"
       r="3" />
    <circle
       id="path952"
       style="fill:#000000;stroke:none;stroke-width:0.264583"
       cx="150.8125"
       cy="79.375"
       r="3" />
    <circle
       id="path954"
       style="fill:#000000;stroke:none;stroke-width:0.264583"
       cx="150.8125"
       cy="127"
       r="3" />
    <path
       style="fill:none;fill-opacity:0.9;stroke:#ff00ff;stroke-width:0.499999;stroke-linecap:square;stroke-dasharray:none;stroke-opacity:1"
       d="m 31.015981,203.11438 c 33.595999,-9.474 69.668969,-15.253 100.905669,-31.81505 7.04063,-3.73302 17.99621,-8.04059 17.40438,-17.50997"
       id="path1605" />
    <path
       style="fill:none;fill-opacity:0.9;stroke:#0000ff;stroke-width:0.499999;stroke-linecap:square;stroke-dasharray:none;stroke-opacity:1"
       d="m 110.89135,183.56918 c 11.47431,7.12913 25.17663,11.94761 37.382,18.43402"
       id="path1641" />
    <circle
       id="path950-5"
       style="fill:#000000;stroke:none;stroke-width:0.264583"
       cx="30.222395"
       cy="202.47092"
       r="3" />
    <circle
       id="path952-0"
       style="fill:#000000;stroke:none;stroke-width:0.264583"
       cx="149.2849"
       cy="154.84592"
       r="3" />
    <circle
       id="path954-0"
       style="fill:#000000;stroke:none;stroke-width:0.264583"
       cx="149.2849"
       cy="202.47092"
       r="3" />
    <path
       style="fill:none;fill-opacity:0.9;stroke:#0000ff;stroke-width:0.499999;stroke-linecap:square;stroke-dasharray:none;stroke-opacity:1"
       d="M 104.06506,179.62534 C 81.692847,168.04087 57.609105,160.62323 32.983309,155.88235"
       id="path1843" />
    <circle
       id="path948-9"
       style="fill:#000000;stroke:none;stroke-width:0.264583"
       cx="30.222395"
       cy="154.84592"
       r="3" />
    <path
       style="fill:none;fill-opacity:0.9;stroke:#0000ff;stroke-width:0.499999;stroke-linecap:square;stroke-dasharray:none;stroke-opacity:1"
       d="m 31.633013,232.24204 c 44.117724,6.20512 79.011277,37.74157 121.922787,49.01514"
       id="path1911" />
    <path
       style="fill:none;fill-opacity:0.9;stroke:#ff00ff;stroke-width:0.499999;stroke-linecap:square;stroke-dasharray:none;stroke-opacity:1"
       d="m 33.828212,280.17229 c 24.477892,-0.47745 47.775008,-6.54035 69.885278,-16.82087"
       id="path1919" />
    <path
       style="fill:none;fill-opacity:0.9;stroke:#ff00ff;stroke-width:0.499999;stroke-linecap:square;stroke-dasharray:none;stroke-opacity:1"
       d="m 108.12583,260.14133 c 15.74565,-8.10824 27.61091,-20.72885 44.88206,-26.24102"
       id="path1921" />
    <circle
       id="path950-5-6"
       style="fill:#000000;stroke:none;stroke-width:0.264583"
       cx="32.68578"
       cy="280.26538"
       r="3" />
    <circle
       id="path952-0-0"
       style="fill:#000000;stroke:none;stroke-width:0.264583"
       cx="151.74828"
       cy="232.64037"
       r="3" />
    <circle
       id="path954-0-6"
       style="fill:#000000;stroke:none;stroke-width:0.264583"
       cx="151.74828"
       cy="280.26538"
       r="3" />
    <circle
       id="path948-9-8"
       style="fill:#000000;stroke:none;stroke-width:0.264583"
       cx="32.68578"
       cy="232.64037"
       r="3" />
  </g>
</svg>
